<svg xmlns="http://www.w3.org/2000/svg" viewBox="-100 -100 329 313" fill="none" shape-rendering="crispEdges" width="329" height="313"><g transform="translate(0, 36)" display="none"><rect x="96" y="65" width="11" height="12" fill="#D97757" /><rect x="75" y="65" width="11" height="12" fill="#D97757" /><rect x="43" y="65" width="11" height="12" fill="#D97757" /><rect x="22" y="65" width="11" height="12" fill="#D97757" /><g><rect x="22" width="85" height="65" fill="#D97757" /><rect x="107" y="36" width="22" height="23" fill="#D97757" /><rect y="36" width="22" height="23" fill="#D97757" /><rect x="86" y="25" width="11" height="11" fill="black" /><rect x="32" y="25" width="11" height="11" fill="black" /></g></g><g display="none" transform="translate(90,-92)"><g display="none"><rect width="5" height="5" transform="matrix(-1 0 0 1 81 43)" fill="#7CA4D0" /><rect width="5" height="5" transform="matrix(-1 0 0 1 76 48)" fill="#7CA4D0" /><rect width="5" height="5" transform="matrix(-1 0 0 1 5 25)" fill="#7CA4D0" /><rect x="8" y="38" width="5" height="10" fill="#7CA4D0" /><rect width="5" height="10" transform="matrix(-1 0 0 1 81 4)" fill="#C87392" /><rect x="18" y="20" width="5" height="5" fill="#C87392" /><rect width="10" height="5" transform="matrix(-1 0 0 1 62 25)" fill="#DD8361" /><rect x="23" width="5" height="10" fill="#DD8361" /><rect x="23" y="15" width="5" height="5" fill="#C87392" /></g></g><g display="none" transform="translate(40,-94) scale(-1,1)"><g display="none"><rect width="5" height="5" transform="matrix(-1 0 0 1 58 11)" fill="#C87392" /><rect width="5" height="5" fill="#DD8361" /></g></g></svg>