<svg xmlns="http://www.w3.org/2000/svg" shape-rendering="crispEdges" viewBox="-100 -100 358 328" fill="none" width="358" height="328"><g transform="translate(14,19)"><g><rect width="11" height="36" transform="matrix(-1 0 0 1 33 73)" fill="#D97757" /><rect width="11" height="31" transform="matrix(-1 0 0 1 54 78)" fill="#D97757" /><rect width="11" height="31" transform="matrix(-1 0 0 1 86 78)" fill="#D97757" /><rect width="11" height="31" transform="matrix(-1 0 0 1 107 78)" fill="#D97757" /><g><rect width="64" height="52" transform="matrix(-1 0 0 1 107 27)" fill="#D97757" /><rect width="54" height="52" transform="matrix(-1 0 0 1 97 27)" fill="#D97757" /><rect width="22" height="23" transform="matrix(-1 0 0 1 129 47)" fill="#D97757" /><rect x="122" y="52" width="11" height="26" fill="black" /><rect x="133" y="57" width="8" height="16" fill="black" /><rect x="114" y="57" width="8" height="16" fill="black" /><rect width="21" height="49" transform="matrix(-1 0 0 1 43 27)" fill="#D97757" /><rect width="12" height="52" transform="matrix(-1 0 0 1 76 31)" fill="#D97757" /><rect width="11" height="11" transform="matrix(-1 0 0 1 97 31)" fill="black" /><rect width="37" height="4" transform="matrix(-1 0 0 1 64 19)" fill="#1A4C81" /><rect width="33" height="4" transform="matrix(-1 0 0 1 97 23)" fill="#1A4C81" /><rect width="7" height="4" transform="matrix(-1 0 0 1 104 23)" fill="#1A4C81" /></g><rect width="22" height="35" transform="matrix(-1 0 0 1 22 5)" fill="#D97757" /><rect width="33" height="5" transform="matrix(-1 0 0 1 97 18)" fill="#D97757" /><rect width="10" height="5" transform="matrix(-1 0 0 1 107 18)" fill="#D97757" /><rect width="42" height="5" transform="matrix(-1 0 0 1 64 14)" fill="#D97757" /><rect width="42" height="5" transform="matrix(-1 0 0 1 64 23)" fill="#D97757" /><rect width="11" height="11" transform="matrix(-1 0 0 1 43 26)" fill="black" /></g><rect width="4" height="18" transform="matrix(-1 0 0 1 4 5)" fill="black" /><rect width="4" height="5" transform="matrix(-1 0 0 1 8 5)" fill="black" /><rect width="13" height="5" transform="matrix(-1 0 0 1 17 0)" fill="black" /><rect width="27" height="5" transform="matrix(-1 0 0 1 44 9)" fill="black" /><rect width="23" height="5" transform="matrix(-1 0 0 1 44 5)" fill="black" /><rect width="11" height="5" transform="matrix(-1 0 0 1 38 0)" fill="black" /></g></svg>